<svg xmlns="http://www.w3.org/2000/svg" viewBox="0 0 64 64">
  <defs>
    <radialGradient id="petal" cx="50%" cy="35%" r="70%">
      <stop offset="0%" stop-color="#ffe3ef"/>
      <stop offset="100%" stop-color="#ffb0d2"/>
    </radialGradient>
  </defs>
  <g fill="url(#petal)" stroke="#ff8fbb" stroke-width="1.5" stroke-linejoin="round">
    <path d="M32 33 C 19 31, 17 15, 25 9 C 28 6.5, 30 11, 32 13 C 34 11, 36 6.5, 39 9 C 47 15, 45 31, 32 33 Z" transform="rotate(0 32 32)"/>
    <path d="M32 33 C 19 31, 17 15, 25 9 C 28 6.5, 30 11, 32 13 C 34 11, 36 6.5, 39 9 C 47 15, 45 31, 32 33 Z" transform="rotate(72 32 32)"/>
    <path d="M32 33 C 19 31, 17 15, 25 9 C 28 6.5, 30 11, 32 13 C 34 11, 36 6.5, 39 9 C 47 15, 45 31, 32 33 Z" transform="rotate(144 32 32)"/>
    <path d="M32 33 C 19 31, 17 15, 25 9 C 28 6.5, 30 11, 32 13 C 34 11, 36 6.5, 39 9 C 47 15, 45 31, 32 33 Z" transform="rotate(216 32 32)"/>
    <path d="M32 33 C 19 31, 17 15, 25 9 C 28 6.5, 30 11, 32 13 C 34 11, 36 6.5, 39 9 C 47 15, 45 31, 32 33 Z" transform="rotate(288 32 32)"/>
  </g>
  <circle cx="32" cy="33" r="12" fill="#fff5f8"/>
  <text x="32" y="34" text-anchor="middle" dominant-baseline="central"
        font-family="'Hiragino Mincho ProN','Yu Mincho',serif" font-weight="700"
        font-size="19" fill="#c2185b">字</text>
</svg>
